<?xml version="1.0" encoding="utf-8"?>
<!-- Generator: Adobe Illustrator 26.5.0, SVG Export Plug-In . SVG Version: 6.00 Build 0)  -->
<svg version="1.1" id="Capa_1" xmlns="http://www.w3.org/2000/svg" xmlns:xlink="http://www.w3.org/1999/xlink" x="0px" y="0px"
	 viewBox="0 0 400 78" style="enable-background:new 0 0 400 78;" xml:space="preserve">
<style type="text/css">
	.st0{fill:#E5332C;}
</style>
<path class="st0" d="M29.73,77.89C31.9,56.36,34,35.62,36.1,14.87c-0.18-0.06-0.36-0.12-0.53-0.17c-0.31,1.07-0.66,2.13-0.93,3.22
	c-2.96,11.95-5.85,23.92-8.89,35.83c-0.58,2.29-1.4,4.69-2.65,6.47c-0.88,1.26-2.89,2.44-4.01,2.03c-1.13-0.41-2.01-2.7-2.56-4.38
	c-0.42-1.28-0.21-2.9-0.18-4.37c0.19-10.53,0.41-21.06,0.61-31.59c0.03-1.82,0-3.64-0.58-5.58c-1.03,6.02-2.06,12.03-3.09,18.05
	c-1.36,8.03-2.81,16.04-4.02,24.1c-0.37,2.46-1.17,3.3-3.14,3.11C4.26,61.42,2.37,61.56,0,61.56c0.88-4.52,1.68-8.63,2.48-12.73
	C4.81,36.8,7.11,24.76,9.51,12.75c0.52-2.6,1.23-5.19,2.16-7.61c1.44-3.79,4.51-5.65,7.64-4.88c3.35,0.83,4.19,4.16,4.15,7.52
	c-0.09,9.91-0.49,19.82-0.77,29.73c-0.02,0.58,0,1.16,0.5,1.92c0.32-1.18,0.67-2.35,0.94-3.54C26,27.76,27.8,19.61,29.73,11.5
	c0.55-2.33,1.3-4.65,2.29-6.75c1.9-4.05,5.09-5.55,8.42-4.21c3.31,1.33,3.46,4.91,3.29,8.17c-0.51,9.77-1.27,19.53-1.96,29.29
	c-0.64,9.15-1.32,18.3-1.95,27.45c-0.08,1.18-0.01,2.38-0.01,3.94c43.17,0,86.14,0,129.52,0c-0.46,2.64-0.77,4.86-1.29,7.01
	c-0.15,0.62-0.84,1.27-1.38,1.45c-0.74,0.25-1.59,0.08-2.39,0.08c-43.51-0.02-87.01-0.04-130.52-0.05
	C32.48,77.89,31.21,77.89,29.73,77.89z"/>
<path class="st0" d="M238.8,26.24c3.35,0,6.71,0,10.32,0c-0.63,4.75-1.21,9.07-1.82,13.67c-3.5,0-6.88,0-10.67,0
	c-1.34,9.78-2.65,19.35-4.04,29.44c53.12,0,105.88,0,159,0c-0.55,2.52-0.82,4.58-1.48,6.44c-0.3,0.84-1.3,1.49-2.09,1.83
	c-0.71,0.31-1.58,0.07-2.38,0.07c-53.11,0-106.22-0.01-159.33-0.01c-1.28,0-2.55,0-4.12,0c0.3-2.37,0.52-4.28,0.78-6.17
	c2.38-17.26,4.67-34.54,7.22-51.76c0.54-3.66,1.69-7.33,3.17-10.59c2.45-5.4,6.33-8.34,11.62-7.98c2.37,0.16,4.75,0.03,7.44,0.03
	c-0.58,4.48-1.03,8.47-1.67,12.41c-0.11,0.67-0.95,1.41-1.57,1.66c-0.72,0.29-1.58,0.1-2.38,0.1
	C239.94,15.38,238.74,16.95,238.8,26.24z"/>
<path class="st0" d="M88.81,25.14c-0.22,12.62-3.85,23.43-11.78,31.71c-4.84,5.05-10.44,7.52-16.7,4.79
	c-6.32-2.76-9.2-9.28-10.22-16.86c-1.87-13.94,1.3-26.22,9.25-36.47c5.07-6.54,11.22-10.31,18.61-7.16
	c7.47,3.18,9.84,11.17,10.82,19.95C88.94,22.43,88.81,23.79,88.81,25.14z M79.5,27.64c-0.18-1.19-0.3-3.17-0.79-5
	c-1.97-7.37-7.76-9.61-12.89-5.08c-5.28,4.65-8.08,14.65-6.26,22.27c1.78,7.42,7.59,10.03,12.73,5.53
	C77,41.26,79.12,35.37,79.5,27.64z"/>
<path class="st0" d="M170.1,25.33c-0.18,10.28-2.84,19.44-8.35,27.27c-0.98,1.39-2.02,2.73-3.17,3.9
	c-5.03,5.17-10.69,7.99-17.19,5.07c-6.42-2.89-9.26-9.62-10.17-17.32c-1.72-14.53,1.82-27.14,10.52-37.33
	c1.77-2.07,3.96-3.8,6.2-5.04c7.65-4.23,15.4-1.23,19.13,7.94c1.9,4.68,2.57,10.11,3.8,15.21C170.62,25.13,170.36,25.23,170.1,25.33
	z M160.57,30.33c0-8.39-2.26-13.19-5.85-14.64c-3.56-1.44-7.53,0.52-10.61,5.4c-3.14,4.97-4.43,10.62-3.66,16.86
	c0.51,4.07,1.96,7.5,5.32,9.03c3.37,1.54,6.3,0.08,8.83-2.64C158.56,40.07,160.5,34.61,160.57,30.33z"/>
<path class="st0" d="M118.82,61.37c-3.31,0-6.18,0-9.31,0c0.67-5.15,1.28-10.07,1.96-14.98c0.9-6.53,0.83-6.69-4.52-8.38
	c0.49-3.8,0.89-7.67,1.55-11.46c0.12-0.7,1.21-1.36,1.95-1.66c2.74-1.11,4.58-4.09,4.07-7.52c-0.18-1.21-1.21-3-1.99-3.12
	c-1.16-0.18-3.02,0.47-3.56,1.54c-1.06,2.11-1.67,4.7-2.02,7.18c-1.69,11.94-3.24,23.92-4.85,35.88c-0.11,0.82-0.33,1.63-0.52,2.54
	c-3.08,0-6.05,0-9.34,0c1.23-9.37,2.42-18.52,3.65-27.65c0.68-5.07,1.33-10.16,2.21-15.18c0.92-5.23,2.73-9.99,5.99-13.73
	c3.73-4.28,8.26-5.92,13.02-3.99c2.31,0.93,4.78,3.43,5.93,6.04c3.5,7.97,0.3,19.46-6.4,23.89c1.11,0.78,2.45,1.17,2.98,2.19
	c0.96,1.85,2.17,4.17,2,6.13C120.97,46.47,119.82,53.8,118.82,61.37z"/>
<path class="st0" d="M278.42,61.34c-3.14,0-6.09,0-9.17,0c0.88-6.86,1.73-13.49,2.65-20.62c-1.94-0.15-3.67-0.29-5.8-0.45
	c0.61-4.43,1.19-8.68,1.76-12.85c0.55-0.15,0.84-0.25,1.13-0.31c1.61-0.31,4.44-0.21,4.6-0.98c0.7-3.22,1-6.76,0.68-10.07
	c-0.26-2.77-3.33-3.63-4.97-1.34c-1.31,1.81-2.32,4.34-2.68,6.72c-1.77,11.92-3.28,23.9-4.89,35.86c-0.18,1.31-0.42,2.61-0.66,4.06
	c-2.9,0-5.66,0-8.97,0c0.65-4.93,1.27-9.69,1.9-14.44c1.21-9.06,2.37-18.13,3.68-27.17c0.84-5.8,2.85-10.99,6.44-15.03
	c3.83-4.32,8.36-5.97,13.29-3.62c4.94,2.36,6.86,7.81,6.48,13.68c-0.63,9.85-2.01,19.64-3.17,29.44
	C280.07,49.9,279.21,55.53,278.42,61.34z"/>
<path class="st0" d="M370.86,1.58c-0.59,4.47-1.15,8.69-1.62,12.24c-3.6,1.39-7.06,2.17-10.03,4.08c-1.72,1.11-2.67,4.02-4.5,6.98
	c4.79,0,8.7,0,12.98,0c-0.57,4.54-1.07,8.5-1.61,12.86c-4.11,0-8.16,0-12.18,0c-0.46,6.85,1.16,8.42,10.67,10.54
	c-0.5,3.92-0.9,7.9-1.59,11.79c-0.12,0.67-1.47,1.38-2.28,1.43c-9.53,0.59-14.96-4.53-16.33-16.19c-1.53-13.06,0.9-25.06,7.8-35.45
	C356.95,2.66,363.11-0.04,370.86,1.58z"/>
<path class="st0" d="M381.98,15.57c-2.36-0.14-4.33-0.26-6.81-0.41c0.61-4.72,1.2-9.22,1.79-13.79c7.74,0,15.21,0,23.04,0
	c-0.56,4.3-0.97,8.4-1.72,12.4c-0.14,0.73-1.63,1.46-2.53,1.52c-4.52,0.32-4.56,0.23-5.29,5.65c-1.68,12.44-3.39,24.88-4.9,37.35
	c-0.33,2.72-1.16,3.52-3.25,3.31c-1.97-0.2-3.97-0.04-6.39-0.04C377.95,46.15,379.92,31.14,381.98,15.57z"/>
<path class="st0" d="M295.64,1.35c3.16,0,5.93,0,9.09,0c-1.02,7.78-2.01,15.34-3,22.91c-0.76,5.8-1.6,11.59-2.24,17.41
	c-0.47,4.23,0.53,5.54,4.05,5.73c1.98,0.1,3.97,0.02,6.37,0.02c-0.63,4.83-1.2,9.23-1.87,14.37c-4.03-0.3-8-0.28-11.88-0.99
	c-3.51-0.65-5.97-3.7-6-8.02c-0.05-6.06,0.45-12.17,1.14-18.18C292.57,23.57,294.16,12.61,295.64,1.35z"/>
<path class="st0" d="M336.81,47.43c-0.66,4.91-1.25,9.33-1.85,13.8c-3.77,0-7.38,0.42-10.89-0.1c-4.82-0.72-7.49-4.55-7.37-11.01
	c0.11-5.82,0.94-11.65,1.66-17.43c1.29-10.38,2.74-20.74,4.15-31.28c2.99,0,5.84,0,9.08,0c-0.97,7.41-1.91,14.6-2.86,21.79
	c-0.81,6.15-1.67,12.29-2.44,18.45c-0.49,3.92,0.54,5.43,3.77,5.73c1.09,0.1,2.19,0.04,3.29,0.04
	C334.44,47.43,335.51,47.43,336.81,47.43z"/>
<path class="st0" d="M191.5,35.22c4.55,0,8.71,0,13.23,0c-0.42,3.24-0.73,6.33-1.26,9.35c-0.12,0.67-0.99,1.61-1.53,1.63
	c-3.84,0.14-7.69,0.07-11.87,0.07C190.58,42.34,191.03,38.91,191.5,35.22z"/>
</svg>
